<svg xmlns="http://www.w3.org/2000/svg" width="800" height="500" viewBox="0 0 800 500">
  <rect width="800" height="500" fill="#FCE7F3" rx="20"/>
  <rect x="300" y="80" width="200" height="250" fill="#FFFFFF" rx="10" stroke="#D1D5DB" stroke-width="3"/>
  <circle cx="370" cy="160" r="30" fill="#FBBF24"/>
  <path d="M310 280 L350 200 L400 240 L440 180 L490 280 Z" fill="#34D399"/>
  <path d="M310 280 L350 230 L400 260 L490 280 Z" fill="#6EE7B7"/>
  <rect x="200" y="300" width="20" height="100" fill="#92400E" rx="3"/>
  <circle cx="210" cy="290" r="25" fill="#EF4444"/>
  <circle cx="195" cy="280" r="25" fill="#3B82F6"/>
  <circle cx="225" cy="280" r="25" fill="#FBBF24"/>
  <rect x="550" y="200" width="100" height="10" fill="#8B5CF6" rx="5"/>
  <rect x="560" y="180" width="80" height="10" fill="#EC4899" rx="5"/>
  <rect x="570" y="160" width="60" height="10" fill="#10B981" rx="5"/>
  <text x="400" y="450" text-anchor="middle" font-family="Arial, sans-serif" font-size="36" fill="#9D174D" font-weight="bold">Art Room</text>
</svg>
